<svg width="24" height="24" viewBox="0 0 24 24" fill="none" xmlns="http://www.w3.org/2000/svg">
<path d="M23.989 12.0238L23.8795 13.6518C23.3605 16.9317 21.842 19.5549 19.3239 21.5214C16.7885 23.4863 13.8028 24.2831 10.3669 23.9117C7.08778 23.3926 4.46521 21.8737 2.4992 19.3551C1.86927 18.5409 1.3504 17.6538 0.942585 16.6938L0.428455 15.2132C0.145994 14.1944 0.00317529 13.1313 0 12.0238C0.0857465 8.62503 1.25678 5.79721 3.5131 3.54033C5.76942 1.28346 8.59655 0.112133 11.9945 0.0263672C15.3924 0.112135 18.2195 1.28346 20.4759 3.54034C22.7322 5.79721 23.9032 8.62503 23.989 12.0238Z" fill="#D72612"/>
<path d="M11.9849 0V4.73003e-05C9.45899 0.0637541 7.24851 0.727381 5.35345 1.99087C5.35361 3.91945 5.41943 5.97071 5.41936 7.89929C11.3721 7.89923 17.259 7.7765 23.2115 7.77644C22.6277 6.18142 21.7126 4.76059 20.4663 3.51397C18.21 1.25709 15.3828 0.0857664 11.9849 0V4.73003e-05V0Z" fill="#00822F"/>
<path d="M5.41129 7.646L5.41128 7.79678L5.41098 16.5466L23.1062 16.5461C23.4662 15.6461 23.7276 14.6814 23.8905 13.652L24 12.0241C23.9601 10.4409 23.6847 8.98164 23.1738 7.64625L5.41129 7.646Z" fill="#F0F0F0"/>
<path d="M23.1293 16.5355V16.5356V16.5356L5.42127 16.4824C5.39755 20.1906 5.39945 22.0086 5.39945 22.0086C6.85063 22.9678 8.51553 23.6173 10.4037 23.8949C10.9472 23.9748 11.4846 23.9835 12.0081 23.9835C14.7774 23.9835 17.2311 23.1608 19.3607 21.5047C21.0894 20.1603 22.3429 18.5004 23.1297 16.5355L23.1293 16.5356V16.5355Z" fill="black"/>
</svg>
