<svg width="299" height="183" viewBox="0 0 299 183" fill="none" xmlns="http://www.w3.org/2000/svg">
<g clip-path="url(#clip0_6322_18738)">
<line x1="92.2951" y1="247.626" x2="92.2951" stroke="#E6E7F4" stroke-width="0.909734"/>
<line x1="150.045" y1="247.626" x2="150.045" stroke="#E6E7F4" stroke-width="0.909734"/>
<line x1="207.795" y1="247.626" x2="207.795" stroke="#E6E7F4" stroke-width="0.909734"/>
<line x1="265.545" y1="247.626" x2="265.545" stroke="#E6E7F4" stroke-width="0.909734"/>
</g>
<g filter="url(#filter0_d_6322_18738)">
<path d="M269.783 32.9946C269.783 35.3907 267.841 37.3331 265.445 37.3331C263.049 37.3331 261.106 35.3907 261.106 32.9946C261.106 30.5986 263.049 28.6562 265.445 28.6562C267.841 28.6562 269.783 30.5986 269.783 32.9946Z" fill="white" shape-rendering="crispEdges"/>
<path d="M269.783 32.9946C269.783 35.3907 267.841 37.3331 265.445 37.3331C263.049 37.3331 261.106 35.3907 261.106 32.9946C261.106 30.5986 263.049 28.6562 265.445 28.6562C267.841 28.6562 269.783 30.5986 269.783 32.9946Z" stroke="url(#paint0_linear_6322_18738)" stroke-width="3.63894" shape-rendering="crispEdges"/>
</g>
<g filter="url(#filter1_d_6322_18738)">
<path d="M38.6036 120.292C38.6036 122.662 36.682 124.584 34.3116 124.584C31.9411 124.584 30.0195 122.662 30.0195 120.292C30.0195 117.922 31.9411 116 34.3116 116C36.682 116 38.6036 117.922 38.6036 120.292Z" fill="white" shape-rendering="crispEdges"/>
<path d="M38.6036 120.292C38.6036 122.662 36.682 124.584 34.3116 124.584C31.9411 124.584 30.0195 122.662 30.0195 120.292C30.0195 117.922 31.9411 116 34.3116 116C36.682 116 38.6036 117.922 38.6036 120.292Z" stroke="url(#paint1_linear_6322_18738)" stroke-width="3.63894" shape-rendering="crispEdges"/>
</g>
<path opacity="0.13" d="M56.434 116.269C50.9161 116.869 46.9513 117.44 46.9513 117.84L46.9513 127.318L256.719 127.318L256.719 35.1979L242.742 49.5295C227.93 64.7169 205.737 70.9426 184.243 65.9403C164.463 61.337 143.976 66.2257 129.216 79.0709L114.416 91.9511C98.4359 105.858 78.0392 113.917 56.434 116.269Z" fill="url(#paint2_linear_6322_18738)"/>
<path d="M49.342 117.151L60.7026 116.082C81.6237 114.114 101.11 105.696 116.351 92.0438L130.825 79.0788C145.404 66.0187 165.919 61.0178 185.698 65.7023V65.7023C207.023 70.7529 229.077 64.5272 243.666 49.3379L257.138 35.311" stroke="#8F00E0" stroke-width="2.7292" stroke-linecap="round"/>
<path d="M26.2791 139.44V140.184H24.7991V145H23.8871V140.184H22.3991V139.44H26.2791ZM29.1147 145.072C28.6987 145.072 28.3227 144.979 27.9867 144.792C27.6507 144.6 27.3867 144.333 27.1947 143.992C27.0027 143.645 26.9067 143.245 26.9067 142.792C26.9067 142.344 27.0054 141.947 27.2027 141.6C27.4 141.253 27.6694 140.987 28.0107 140.8C28.352 140.613 28.7334 140.52 29.1547 140.52C29.576 140.52 29.9574 140.613 30.2987 140.8C30.64 140.987 30.9094 141.253 31.1067 141.6C31.304 141.947 31.4027 142.344 31.4027 142.792C31.4027 143.24 31.3014 143.637 31.0987 143.984C30.896 144.331 30.6187 144.6 30.2667 144.792C29.92 144.979 29.536 145.072 29.1147 145.072ZM29.1147 144.28C29.3494 144.28 29.568 144.224 29.7707 144.112C29.9787 144 30.1467 143.832 30.2747 143.608C30.4027 143.384 30.4667 143.112 30.4667 142.792C30.4667 142.472 30.4054 142.203 30.2827 141.984C30.16 141.76 29.9974 141.592 29.7947 141.48C29.592 141.368 29.3734 141.312 29.1387 141.312C28.904 141.312 28.6854 141.368 28.4827 141.48C28.2854 141.592 28.128 141.76 28.0107 141.984C27.8934 142.203 27.8347 142.472 27.8347 142.792C27.8347 143.267 27.9547 143.635 28.1947 143.896C28.44 144.152 28.7467 144.28 29.1147 144.28ZM32.0002 142.776C32.0002 142.333 32.0909 141.941 32.2722 141.6C32.4589 141.259 32.7096 140.995 33.0242 140.808C33.3442 140.616 33.6989 140.52 34.0882 140.52C34.3762 140.52 34.6589 140.584 34.9362 140.712C35.2189 140.835 35.4429 141 35.6082 141.208V139.08H36.5282V145H35.6082V144.336C35.4589 144.549 35.2509 144.725 34.9842 144.864C34.7229 145.003 34.4216 145.072 34.0802 145.072C33.6962 145.072 33.3442 144.976 33.0242 144.784C32.7096 144.587 32.4589 144.315 32.2722 143.968C32.0909 143.616 32.0002 143.219 32.0002 142.776ZM35.6082 142.792C35.6082 142.488 35.5442 142.224 35.4162 142C35.2936 141.776 35.1309 141.605 34.9282 141.488C34.7256 141.371 34.5069 141.312 34.2722 141.312C34.0376 141.312 33.8189 141.371 33.6162 141.488C33.4136 141.6 33.2482 141.768 33.1202 141.992C32.9976 142.211 32.9362 142.472 32.9362 142.776C32.9362 143.08 32.9976 143.347 33.1202 143.576C33.2482 143.805 33.4136 143.981 33.6162 144.104C33.8242 144.221 34.0429 144.28 34.2722 144.28C34.5069 144.28 34.7256 144.221 34.9282 144.104C35.1309 143.987 35.2936 143.816 35.4162 143.592C35.5442 143.363 35.6082 143.096 35.6082 142.792ZM37.4221 142.776C37.4221 142.333 37.5128 141.941 37.6941 141.6C37.8808 141.259 38.1315 140.995 38.4461 140.808C38.7661 140.616 39.1181 140.52 39.5021 140.52C39.8488 140.52 40.1501 140.589 40.4061 140.728C40.6675 140.861 40.8755 141.029 41.0301 141.232V140.592H41.9501V145H41.0301V144.344C40.8755 144.552 40.6648 144.725 40.3981 144.864C40.1315 145.003 39.8275 145.072 39.4861 145.072C39.1075 145.072 38.7608 144.976 38.4461 144.784C38.1315 144.587 37.8808 144.315 37.6941 143.968C37.5128 143.616 37.4221 143.219 37.4221 142.776ZM41.0301 142.792C41.0301 142.488 40.9661 142.224 40.8381 142C40.7155 141.776 40.5528 141.605 40.3501 141.488C40.1475 141.371 39.9288 141.312 39.6941 141.312C39.4595 141.312 39.2408 141.371 39.0381 141.488C38.8355 141.6 38.6701 141.768 38.5421 141.992C38.4195 142.211 38.3581 142.472 38.3581 142.776C38.3581 143.08 38.4195 143.347 38.5421 143.576C38.6701 143.805 38.8355 143.981 39.0381 144.104C39.2461 144.221 39.4648 144.28 39.6941 144.28C39.9288 144.28 40.1475 144.221 40.3501 144.104C40.5528 143.987 40.7155 143.816 40.8381 143.592C40.9661 143.363 41.0301 143.096 41.0301 142.792ZM47.116 140.592L44.412 147.072H43.468L44.364 144.928L42.628 140.592H43.644L44.884 143.952L46.172 140.592H47.116Z" fill="#6D6E8A"/>
<path d="M248.826 139.952H246.146V141.544C246.258 141.395 246.424 141.269 246.642 141.168C246.866 141.067 247.104 141.016 247.354 141.016C247.802 141.016 248.165 141.112 248.442 141.304C248.725 141.496 248.925 141.739 249.042 142.032C249.165 142.325 249.226 142.635 249.226 142.96C249.226 143.355 249.149 143.707 248.994 144.016C248.845 144.32 248.618 144.56 248.314 144.736C248.016 144.912 247.648 145 247.21 145C246.629 145 246.162 144.856 245.81 144.568C245.458 144.28 245.248 143.899 245.178 143.424H246.066C246.125 143.675 246.256 143.875 246.458 144.024C246.661 144.168 246.914 144.24 247.218 144.24C247.597 144.24 247.88 144.125 248.066 143.896C248.258 143.667 248.354 143.363 248.354 142.984C248.354 142.6 248.258 142.307 248.066 142.104C247.874 141.896 247.592 141.792 247.218 141.792C246.957 141.792 246.736 141.859 246.554 141.992C246.378 142.12 246.25 142.296 246.17 142.52H245.306V139.152H248.826V139.952ZM254.91 145.056C254.392 145.056 253.915 144.936 253.478 144.696C253.046 144.451 252.702 144.112 252.446 143.68C252.195 143.243 252.07 142.752 252.07 142.208C252.07 141.664 252.195 141.176 252.446 140.744C252.702 140.312 253.046 139.976 253.478 139.736C253.915 139.491 254.392 139.368 254.91 139.368C255.432 139.368 255.91 139.491 256.342 139.736C256.779 139.976 257.123 140.312 257.374 140.744C257.624 141.176 257.75 141.664 257.75 142.208C257.75 142.752 257.624 143.243 257.374 143.68C257.123 144.112 256.779 144.451 256.342 144.696C255.91 144.936 255.432 145.056 254.91 145.056ZM254.91 144.264C255.278 144.264 255.606 144.181 255.894 144.016C256.182 143.845 256.406 143.605 256.566 143.296C256.731 142.981 256.814 142.619 256.814 142.208C256.814 141.797 256.731 141.437 256.566 141.128C256.406 140.819 256.182 140.581 255.894 140.416C255.606 140.251 255.278 140.168 254.91 140.168C254.542 140.168 254.214 140.251 253.926 140.416C253.638 140.581 253.411 140.819 253.246 141.128C253.086 141.437 253.006 141.797 253.006 142.208C253.006 142.619 253.086 142.981 253.246 143.296C253.411 143.605 253.638 143.845 253.926 144.016C254.214 144.181 254.542 144.264 254.91 144.264ZM258.343 142.792C258.343 142.339 258.434 141.941 258.615 141.6C258.802 141.253 259.058 140.987 259.383 140.8C259.709 140.613 260.082 140.52 260.503 140.52C261.037 140.52 261.477 140.648 261.823 140.904C262.175 141.155 262.413 141.515 262.535 141.984H261.551C261.471 141.765 261.343 141.595 261.167 141.472C260.991 141.349 260.77 141.288 260.503 141.288C260.13 141.288 259.831 141.421 259.607 141.688C259.389 141.949 259.279 142.317 259.279 142.792C259.279 143.267 259.389 143.637 259.607 143.904C259.831 144.171 260.13 144.304 260.503 144.304C261.031 144.304 261.381 144.072 261.551 143.608H262.535C262.407 144.056 262.167 144.413 261.815 144.68C261.463 144.941 261.026 145.072 260.503 145.072C260.082 145.072 259.709 144.979 259.383 144.792C259.058 144.6 258.802 144.333 258.615 143.992C258.434 143.645 258.343 143.245 258.343 142.792ZM264.508 141.336V143.776C264.508 143.941 264.545 144.061 264.62 144.136C264.7 144.205 264.833 144.24 265.02 144.24H265.58V145H264.86C264.449 145 264.135 144.904 263.916 144.712C263.697 144.52 263.588 144.208 263.588 143.776V141.336H263.068V140.592H263.588V139.496H264.508V140.592H265.58V141.336H264.508ZM268.883 143.76C269.395 143.317 269.797 142.955 270.091 142.672C270.389 142.384 270.637 142.085 270.835 141.776C271.032 141.467 271.131 141.157 271.131 140.848C271.131 140.528 271.053 140.277 270.899 140.096C270.749 139.915 270.512 139.824 270.187 139.824C269.872 139.824 269.627 139.925 269.451 140.128C269.28 140.325 269.189 140.592 269.179 140.928H268.299C268.315 140.32 268.496 139.856 268.843 139.536C269.195 139.211 269.64 139.048 270.179 139.048C270.76 139.048 271.213 139.208 271.539 139.528C271.869 139.848 272.035 140.275 272.035 140.808C272.035 141.192 271.936 141.563 271.739 141.92C271.547 142.272 271.315 142.589 271.043 142.872C270.776 143.149 270.435 143.472 270.019 143.84L269.659 144.16H272.195V144.92H268.307V144.256L268.883 143.76ZM272.996 142.008C272.996 141.085 273.151 140.365 273.46 139.848C273.775 139.325 274.313 139.064 275.076 139.064C275.839 139.064 276.375 139.325 276.684 139.848C276.999 140.365 277.156 141.085 277.156 142.008C277.156 142.941 276.999 143.672 276.684 144.2C276.375 144.723 275.839 144.984 275.076 144.984C274.313 144.984 273.775 144.723 273.46 144.2C273.151 143.672 272.996 142.941 272.996 142.008ZM276.26 142.008C276.26 141.576 276.231 141.211 276.172 140.912C276.119 140.613 276.007 140.371 275.836 140.184C275.665 139.992 275.412 139.896 275.076 139.896C274.74 139.896 274.487 139.992 274.316 140.184C274.145 140.371 274.031 140.613 273.972 140.912C273.919 141.211 273.892 141.576 273.892 142.008C273.892 142.456 273.919 142.832 273.972 143.136C274.025 143.44 274.137 143.685 274.308 143.872C274.484 144.059 274.74 144.152 275.076 144.152C275.412 144.152 275.665 144.059 275.836 143.872C276.012 143.685 276.127 143.44 276.18 143.136C276.233 142.832 276.26 142.456 276.26 142.008ZM278.625 143.76C279.137 143.317 279.54 142.955 279.833 142.672C280.132 142.384 280.38 142.085 280.577 141.776C280.774 141.467 280.873 141.157 280.873 140.848C280.873 140.528 280.796 140.277 280.641 140.096C280.492 139.915 280.254 139.824 279.929 139.824C279.614 139.824 279.369 139.925 279.193 140.128C279.022 140.325 278.932 140.592 278.921 140.928H278.041C278.057 140.32 278.238 139.856 278.585 139.536C278.937 139.211 279.382 139.048 279.921 139.048C280.502 139.048 280.956 139.208 281.281 139.528C281.612 139.848 281.777 140.275 281.777 140.808C281.777 141.192 281.678 141.563 281.481 141.92C281.289 142.272 281.057 142.589 280.785 142.872C280.518 143.149 280.177 143.472 279.761 143.84L279.401 144.16H281.937V144.92H278.049V144.256L278.625 143.76ZM283.242 143.76C283.754 143.317 284.157 142.955 284.45 142.672C284.749 142.384 284.997 142.085 285.194 141.776C285.391 141.467 285.49 141.157 285.49 140.848C285.49 140.528 285.413 140.277 285.258 140.096C285.109 139.915 284.871 139.824 284.546 139.824C284.231 139.824 283.986 139.925 283.81 140.128C283.639 140.325 283.549 140.592 283.538 140.928H282.658C282.674 140.32 282.855 139.856 283.202 139.536C283.554 139.211 283.999 139.048 284.538 139.048C285.119 139.048 285.573 139.208 285.898 139.528C286.229 139.848 286.394 140.275 286.394 140.808C286.394 141.192 286.295 141.563 286.098 141.92C285.906 142.272 285.674 142.589 285.402 142.872C285.135 143.149 284.794 143.472 284.378 143.84L284.018 144.16H286.554V144.92H282.666V144.256L283.242 143.76Z" fill="#6D6E8A"/>
<defs>
<filter id="filter0_d_6322_18738" x="231.995" y="13.1907" width="66.9" height="66.8999" filterUnits="userSpaceOnUse" color-interpolation-filters="sRGB">
<feFlood flood-opacity="0" result="BackgroundImageFix"/>
<feColorMatrix in="SourceAlpha" type="matrix" values="0 0 0 0 0 0 0 0 0 0 0 0 0 0 0 0 0 0 127 0" result="hardAlpha"/>
<feOffset dy="13.646"/>
<feGaussianBlur stdDeviation="13.646"/>
<feComposite in2="hardAlpha" operator="out"/>
<feColorMatrix type="matrix" values="0 0 0 0 0.223889 0 0 0 0 0.103125 0 0 0 0 0.45 0 0 0 0.15 0"/>
<feBlend mode="normal" in2="BackgroundImageFix" result="effect1_dropShadow_6322_18738"/>
<feBlend mode="normal" in="SourceGraphic" in2="effect1_dropShadow_6322_18738" result="shape"/>
</filter>
<filter id="filter1_d_6322_18738" x="0.908161" y="100.535" width="66.8067" height="66.807" filterUnits="userSpaceOnUse" color-interpolation-filters="sRGB">
<feFlood flood-opacity="0" result="BackgroundImageFix"/>
<feColorMatrix in="SourceAlpha" type="matrix" values="0 0 0 0 0 0 0 0 0 0 0 0 0 0 0 0 0 0 127 0" result="hardAlpha"/>
<feOffset dy="13.646"/>
<feGaussianBlur stdDeviation="13.646"/>
<feComposite in2="hardAlpha" operator="out"/>
<feColorMatrix type="matrix" values="0 0 0 0 0.223889 0 0 0 0 0.103125 0 0 0 0 0.45 0 0 0 0.15 0"/>
<feBlend mode="normal" in2="BackgroundImageFix" result="effect1_dropShadow_6322_18738"/>
<feBlend mode="normal" in="SourceGraphic" in2="effect1_dropShadow_6322_18738" result="shape"/>
</filter>
<linearGradient id="paint0_linear_6322_18738" x1="269.783" y1="28.6562" x2="261.106" y2="37.3331" gradientUnits="userSpaceOnUse">
<stop stop-color="#8BB4F2"/>
<stop offset="0.51551" stop-color="#7C27D9" stop-opacity="0.887325"/>
<stop offset="1" stop-color="#DE52D0" stop-opacity="0.76"/>
</linearGradient>
<linearGradient id="paint1_linear_6322_18738" x1="38.6036" y1="116" x2="30.0195" y2="124.584" gradientUnits="userSpaceOnUse">
<stop stop-color="#8BB4F2"/>
<stop offset="0.51551" stop-color="#7C27D9" stop-opacity="0.887325"/>
<stop offset="1" stop-color="#DE52D0" stop-opacity="0.76"/>
</linearGradient>
<linearGradient id="paint2_linear_6322_18738" x1="175.767" y1="69.4001" x2="173.268" y2="123.517" gradientUnits="userSpaceOnUse">
<stop stop-color="#8F00E0"/>
<stop offset="1" stop-color="#8F00E0" stop-opacity="0"/>
</linearGradient>
<clipPath id="clip0_6322_18738">
<rect width="231" height="132" fill="white" transform="translate(35)"/>
</clipPath>
</defs>
</svg>
