<svg width="175" height="41" viewBox="0 0 175 41" fill="none" xmlns="http://www.w3.org/2000/svg">
<rect width="175" height="41" fill="white"/>
<path d="M76.5 2.5C76.5 3.52309 75.47 4.5 74 4.5C72.5301 4.5 71.5 3.52308 71.5 2.5C71.5 1.47692 72.5301 0.5 74 0.5C75.47 0.5 76.5 1.47691 76.5 2.5Z" fill="#6D6E8A" stroke="#6D6E8A"/>
<path d="M117.965 17.8494H118.844L118.395 17.0939C117.483 15.5601 116.962 13.7744 116.962 11.8706C116.962 6.15012 121.678 1.5 127.516 1.5H163.945C169.783 1.5 174.5 6.15012 174.5 11.8706C174.5 17.5912 169.783 22.2413 163.945 22.2413H76.4832H75.9832V22.7413V38.3041C75.9832 39.5103 74.9889 40.5 73.7416 40.5C72.4943 40.5 71.5 39.5103 71.5 38.3041V12.0406C71.5 10.8344 72.4943 9.84469 73.7416 9.84469C74.9889 9.84469 75.9832 10.8344 75.9832 12.0406V17.3455V17.8455H76.4832H100.627C103.681 17.8455 106.168 15.4119 106.168 12.3885C106.168 9.98341 104.665 8.02032 102.837 7.45577L102.828 7.4532L102.82 7.45092L97.7308 6.07132L97.7307 6.0713C96.5336 5.74702 95.8425 4.53372 96.1679 3.37227C96.4939 2.20872 97.727 1.51291 98.9285 1.83838L104.04 3.22506C104.049 3.22776 104.056 3.22998 104.062 3.23175C104.071 3.23457 104.08 3.23704 104.086 3.23862L104.09 3.24002L104.11 3.24606C108.095 4.43661 110.651 8.31417 110.651 12.3924C110.651 14.1003 110.211 15.7085 109.432 17.1059L109.017 17.8494H109.869H117.965ZM127.516 17.8494H163.953C167.301 17.8494 170.025 15.1785 170.025 11.8706C170.025 8.56259 167.297 5.89184 163.953 5.89184H127.516C124.173 5.89184 121.445 8.5626 121.445 11.8706C121.445 15.1787 124.173 17.8494 127.516 17.8494Z" fill="#6D6E8A" stroke="#6D6E8A"/>
<path d="M65.5 2.69852V38.3015C65.5 39.4685 64.4333 40.5 63 40.5C61.5666 40.5 60.5 39.4686 60.5 38.3015V2.69852C60.5 1.53145 61.5666 0.5 63 0.5C64.4328 0.5 65.5 1.53497 65.5 2.69852Z" fill="#6D6E8A" stroke="#6D6E8A"/>
<path d="M91.5 29.5C91.5 30.6046 90.6046 31.5 89.5 31.5C88.3954 31.5 87.5 30.6046 87.5 29.5C87.5 28.3954 88.3954 27.5 89.5 27.5C90.6046 27.5 91.5 28.3954 91.5 29.5Z" fill="#6D6E8A" stroke="#6D6E8A"/>
<path d="M99.5 29.5C99.5 30.6046 98.6046 31.5 97.5 31.5C96.3954 31.5 95.5 30.6046 95.5 29.5C95.5 28.3954 96.3954 27.5 97.5 27.5C98.6046 27.5 99.5 28.3954 99.5 29.5Z" fill="#6D6E8A" stroke="#6D6E8A"/>
<path d="M13.3721 5.91942L13.372 5.91944L8.29985 7.32652L8.29185 7.32874L8.28393 7.33123C6.4556 7.90446 4.96475 9.91157 4.96475 12.3521C4.96475 15.4193 7.43325 17.9079 10.4888 17.9079L10.4955 17.9079L10.4968 17.9079L44.5099 17.9966H44.5112H44.5152C47.5673 17.9966 50.0353 15.5034 50.0353 12.4408C50.0353 9.99942 48.5439 7.99758 46.7172 7.42026L46.7088 7.41758L46.7002 7.41521L41.6281 6.00813L41.628 6.0081C40.4423 5.67939 39.7409 4.4402 40.0696 3.2393C40.3977 2.04091 41.6294 1.34127 42.8152 1.67001L47.9096 3.08425C47.9177 3.08698 47.9249 3.08924 47.9308 3.09104C47.9401 3.09387 47.9489 3.09636 47.9548 3.09799L47.9582 3.09939L47.9788 3.10567C51.9456 4.31846 54.5 8.27368 54.5 12.4449C54.5 18.0016 50.0254 22.5 44.5112 22.5L44.5045 22.5L44.5032 22.5L10.4901 22.4113H10.4888H10.4851C4.97452 22.4075 0.5 17.9127 0.5 12.3561C0.5 8.18438 3.05078 4.22589 7.02065 3.01713L7.0415 3.01078L7.04901 3.00776L7.0509 3.00722L7.06274 3.00379C7.06848 3.00211 7.07534 3.00005 7.08303 2.99762L12.1849 1.5813C12.1849 1.58128 12.185 1.58126 12.1851 1.58125C13.3708 1.25263 14.6024 1.95227 14.9304 3.15061C15.2592 4.35152 14.5578 5.5907 13.3721 5.91942Z" fill="#6D6E8A" stroke="#6D6E8A"/>
<path d="M29.5 2.5C29.5 3.60456 28.6046 4.5 27.5 4.5C26.3954 4.5 25.5 3.60457 25.5 2.5C25.5 1.39543 26.3954 0.5 27.5 0.5C28.6046 0.5 29.5 1.39544 29.5 2.5Z" fill="#6D6E8A" stroke="#6D6E8A"/>
</svg>
